# xmcd
#
# Track frame offsets:
#	150
#	14410
#	26917
#	43499
#	56524
#	67543
#	80118
#	94215
#	106723
#	116356
#	134306
#	144199
#
# Disc length: 2172 seconds
#
# Revision: 0
# Processed by: cddbd v1.5.1PL2 Copyright (c) Steve Scherf et al.
# Submitted via: dBpowerAMP V4.0
#
DISCID=9c087a0c
DTITLE=James Brown - The best of
DYEAR=1900
DGENRE=Soul
TTITLE0=Sex machine
TTITLE1=Please, please, please
TTITLE2=Hey America
TTITLE3=Say it loud, i'm black and i'm proud
TTITLE4=Prisoner of love
TTITLE5=It's a man's man's world
TTITLE6=Ain't it funky now
TTITLE7=Stagger Lee
TTITLE8=Papa's got a brand new bag
TTITLE9=King heroin
TTITLE10=I'll go crazy
TTITLE11=I' can't stand myself
EXTD=
EXTT0=
EXTT1=
EXTT2=
EXTT3=
EXTT4=
EXTT5=
EXTT6=
EXTT7=
EXTT8=
EXTT9=
EXTT10=
EXTT11=
PLAYORDER=
